{
  "asset": {
    "version": "2.0",
    "generator": "THREE.GLTFExporter"
  },
  "scenes": [
    {
      "name": "Scene",
      "nodes": [
        3
      ]
    }
  ],
  "scene": 0,
  "nodes": [
    {
      "matrix": [
        1,
        0,
        0,
        0,
        0,
        2.220446049250313e-16,
        -1,
        0,
        0,
        1,
        2.220446049250313e-16,
        0,
        -0.23040771484375,
        0,
        0,
        1
      ],
      "name": "Cylinder001",
      "extras": {
        "transformData": {
          "inheritType": 1,
          "eulerOrder": "ZYX",
          "translation": [
            -0.23040771484375,
            0,
            0
          ],
          "preRotation": [
            -90,
            0,
            0
          ],
          "parentMatrix": {
            "elements": [
              0.0025,
              0,
              0,
              0,
              0,
              0.003,
              0,
              0,
              0,
              0,
              0.003,
              0,
              0,
              0,
              0,
              1
            ]
          },
          "parentMatrixWorld": {
            "elements": [
              0.0025,
              0,
              0,
              0,
              0,
              0.003,
              0,
              0,
              0,
              0,
              0.003,
              0,
              0,
              0,
              0,
              1
            ]
          }
        }
      },
      "mesh": 0
    },
    {
      "matrix": [
        1,
        0,
        0,
        0,
        0,
        0.9999999999999999,
        0,
        0,
        0,
        0,
        0.9999999999999999,
        0,
        -0.23040771484375,
        0,
        0,
        1
      ],
      "name": "Cylinder002",
      "extras": {
        "transformData": {
          "inheritType": 1,
          "eulerOrder": "ZYX",
          "translation": [
            -0.23040771484375,
            0,
            0
          ],
          "preRotation": [
            -90,
            0,
            0
          ],
          "rotation": [
            -89.99998884410013,
            0,
            0
          ],
          "parentMatrix": {
            "elements": [
              0.0025,
              0,
              0,
              0,
              0,
              0.003,
              0,
              0,
              0,
              0,
              0.003,
              0,
              0,
              0,
              0,
              1
            ]
          },
          "parentMatrixWorld": {
            "elements": [
              0.0025,
              0,
              0,
              0,
              0,
              0.003,
              0,
              0,
              0,
              0,
              0.003,
              0,
              0,
              0,
              0,
              1
            ]
          }
        }
      },
      "mesh": 1
    },
    {
      "matrix": [
        4.3711387953671015e-8,
        -0.9999999999999992,
        -5.551115123125782e-17,
        0,
        -5.551115123125783e-17,
        0,
        -1.0000000000000002,
        0,
        0.9999999999999992,
        4.371138812020447e-8,
        -2.2204460492503128e-16,
        0,
        0,
        0,
        0,
        1
      ],
      "name": "Cylinder003",
      "extras": {
        "transformData": {
          "inheritType": 1,
          "eulerOrder": "ZYX",
          "preRotation": [
            -90,
            0,
            0
          ],
          "rotation": [
            0,
            89.99999749552194,
            0
          ],
          "parentMatrix": {
            "elements": [
              0.0025,
              0,
              0,
              0,
              0,
              0.003,
              0,
              0,
              0,
              0,
              0.003,
              0,
              0,
              0,
              0,
              1
            ]
          },
          "parentMatrixWorld": {
            "elements": [
              0.0025,
              0,
              0,
              0,
              0,
              0.003,
              0,
              0,
              0,
              0,
              0.003,
              0,
              0,
              0,
              0,
              1
            ]
          }
        }
      },
      "mesh": 2
    },
    {
      "matrix": [
        0.0025,
        0,
        0,
        0,
        0,
        0.003,
        0,
        0,
        0,
        0,
        0.003,
        0,
        0,
        0,
        0,
        1
      ],
      "children": [
        0,
        1,
        2
      ]
    }
  ],
  "bufferViews": [
    {
      "buffer": 0,
      "byteOffset": 0,
      "byteLength": 1872,
      "target": 34962,
      "byteStride": 12
    },
    {
      "buffer": 0,
      "byteOffset": 1872,
      "byteLength": 1872,
      "target": 34962,
      "byteStride": 12
    },
    {
      "buffer": 0,
      "byteOffset": 3744,
      "byteLength": 1248,
      "target": 34962,
      "byteStride": 8
    },
    {
      "buffer": 0,
      "byteOffset": 4992,
      "byteLength": 1872,
      "target": 34962,
      "byteStride": 12
    },
    {
      "buffer": 0,
      "byteOffset": 6864,
      "byteLength": 1872,
      "target": 34962,
      "byteStride": 12
    },
    {
      "buffer": 0,
      "byteOffset": 8736,
      "byteLength": 1248,
      "target": 34962,
      "byteStride": 8
    },
    {
      "buffer": 0,
      "byteOffset": 9984,
      "byteLength": 1872,
      "target": 34962,
      "byteStride": 12
    },
    {
      "buffer": 0,
      "byteOffset": 11856,
      "byteLength": 1872,
      "target": 34962,
      "byteStride": 12
    },
    {
      "buffer": 0,
      "byteOffset": 13728,
      "byteLength": 1248,
      "target": 34962,
      "byteStride": 8
    }
  ],
  "buffers": [
    {
      "byteLength": 14976,
      "uri": "data:application/octet-stream;base64,"
    }
  ],
  "accessors": [
    {
      "bufferView": 0,
      "componentType": 5126,
      "count": 156,
      "max": [
        7.8766679763793945,
        7.5,
        116.7724609375
      ],
      "min": [
        -7.1233320236206055,
        -7.5,
        0
      ],
      "type": "VEC3"
    },
    {
      "bufferView": 1,
      "componentType": 5126,
      "count": 156,
      "max": [
        1,
        1,
        1
      ],
      "min": [
        -1,
        -1,
        -1
      ],
      "type": "VEC3"
    },
    {
      "bufferView": 2,
      "componentType": 5126,
      "count": 156,
      "max": [
        1,
        1
      ],
      "min": [
        -0.08333331346511841,
        0
      ],
      "type": "VEC2"
    },
    {
      "bufferView": 3,
      "componentType": 5126,
      "count": 156,
      "max": [
        7.8766679763793945,
        7.5,
        116.7724609375
      ],
      "min": [
        -7.1233320236206055,
        -7.5,
        0
      ],
      "type": "VEC3"
    },
    {
      "bufferView": 4,
      "componentType": 5126,
      "count": 156,
      "max": [
        1,
        1,
        1
      ],
      "min": [
        -1,
        -1,
        -1
      ],
      "type": "VEC3"
    },
    {
      "bufferView": 5,
      "componentType": 5126,
      "count": 156,
      "max": [
        1,
        1
      ],
      "min": [
        -0.08333331346511841,
        0
      ],
      "type": "VEC2"
    },
    {
      "bufferView": 6,
      "componentType": 5126,
      "count": 156,
      "max": [
        7.8766679763793945,
        7.5,
        116.7724609375
      ],
      "min": [
        -7.1233320236206055,
        -7.5,
        0
      ],
      "type": "VEC3"
    },
    {
      "bufferView": 7,
      "componentType": 5126,
      "count": 156,
      "max": [
        1,
        1,
        1
      ],
      "min": [
        -1,
        -1,
        -1
      ],
      "type": "VEC3"
    },
    {
      "bufferView": 8,
      "componentType": 5126,
      "count": 156,
      "max": [
        1,
        1
      ],
      "min": [
        -0.08333331346511841,
        0
      ],
      "type": "VEC2"
    }
  ],
  "materials": [
    {
      "pbrMetallicRoughness": {
        "baseColorFactor": [
          0,
          0.3803921568627451,
          0.023529411764705882,
          1
        ],
        "metallicFactor": 0.5,
        "roughnessFactor": 0.5
      }
    },
    {
      "pbrMetallicRoughness": {
        "baseColorFactor": [
          0.027450980392156862,
          0.050980392156862744,
          0.7725490196078432,
          1
        ],
        "metallicFactor": 0.5,
        "roughnessFactor": 0.5
      }
    },
    {
      "pbrMetallicRoughness": {
        "baseColorFactor": [
          0.4470588235294118,
          0.011764705882352941,
          0.011764705882352941,
          1
        ],
        "metallicFactor": 0.5,
        "roughnessFactor": 0.5
      }
    }
  ],
  "meshes": [
    {
      "primitives": [
        {
          "mode": 4,
          "attributes": {
            "POSITION": 0,
            "NORMAL": 1,
            "TEXCOORD_0": 2
          },
          "material": 0
        }
      ]
    },
    {
      "primitives": [
        {
          "mode": 4,
          "attributes": {
            "POSITION": 3,
            "NORMAL": 4,
            "TEXCOORD_0": 5
          },
          "material": 1
        }
      ]
    },
    {
      "primitives": [
        {
          "mode": 4,
          "attributes": {
            "POSITION": 6,
            "NORMAL": 7,
            "TEXCOORD_0": 8
          },
          "material": 2
        }
      ]
    }
  ]
}