{
  "asset": {
    "version": "2.0",
    "generator": "THREE.GLTFExporter"
  },
  "scenes": [
    {
      "name": "Scene",
      "nodes": [
        0,
        1,
        2,
        4
      ]
    }
  ],
  "scene": 0,
  "nodes": [
    {},
    {
      "name": "AmbientLight"
    },
    {
      "matrix": [
        1,
        0,
        0,
        0,
        0,
        1,
        0,
        0,
        0,
        0,
        1,
        0,
        5,
        25.750763651051244,
        23.822906668201753,
        1
      ],
      "name": "DirectionalLight",
      "extensions": {
        "KHR_lights_punctual": {
          "light": 0
        }
      }
    },
    {
      "matrix": [
        0.1,
        0,
        0,
        0,
        0,
        0.09999999999999991,
        4.371138828673792e-9,
        0,
        0,
        -4.371138828673792e-9,
        0.09999999999999991,
        0,
        0,
        0,
        0,
        1
      ],
      "name": "OracDecor_C341_cornice_moulding",
      "extras": {
        "transformData": {
          "inheritType": 1,
          "eulerOrder": "ZYX",
          "preRotation": [
            -90,
            0,
            0
          ],
          "rotation": [
            90.00000250447806,
            0,
            0
          ],
          "scale": [
            0.1,
            0.1,
            0.1
          ],
          "parentMatrix": {
            "elements": [
              0.01,
              0,
              0,
              0,
              0,
              0.01,
              0,
              0,
              0,
              0,
              0.01,
              0,
              0,
              0,
              0,
              1
            ]
          },
          "parentMatrixWorld": {
            "elements": [
              0.01,
              0,
              0,
              0,
              0,
              0.01,
              0,
              0,
              0,
              0,
              0.01,
              0,
              0,
              0,
              0,
              1
            ]
          }
        }
      },
      "mesh": 0
    },
    {
      "matrix": [
        0.01,
        0,
        0,
        0,
        0,
        0.01,
        0,
        0,
        0,
        0,
        0.01,
        0,
        0,
        0,
        0,
        1
      ],
      "children": [
        3
      ]
    }
  ],
  "extensions": {
    "KHR_lights_punctual": {
      "lights": [
        {
          "name": "DirectionalLight",
          "color": [
            1,
            1,
            1
          ],
          "intensity": 1,
          "type": "directional"
        }
      ]
    }
  },
  "bufferViews": [
    {
      "buffer": 0,
      "byteOffset": 0,
      "byteLength": 26208,
      "target": 34962,
      "byteStride": 12
    },
    {
      "buffer": 0,
      "byteOffset": 26208,
      "byteLength": 26208,
      "target": 34962,
      "byteStride": 12
    },
    {
      "buffer": 0,
      "byteOffset": 52416,
      "byteLength": 17472,
      "target": 34962,
      "byteStride": 8
    }
  ],
  "buffers": [
    {
      "byteLength": 69888,
      "uri": "data:application/octet-stream;base64,"
    }
  ],
  "accessors": [
    {
      "bufferView": 0,
      "componentType": 5126,
      "count": 2184,
      "max": [
        1000,
        0.0000019073486328125,
        122.00007629394531
      ],
      "min": [
        -1000,
        -88.00399780273438,
        -0.000030517578125
      ],
      "type": "VEC3"
    },
    {
      "bufferView": 1,
      "componentType": 5126,
      "count": 2184,
      "max": [
        1,
        1,
        0.9999078512191772
      ],
      "min": [
        -1,
        -0.999791145324707,
        -1
      ],
      "type": "VEC3"
    },
    {
      "bufferView": 2,
      "componentType": 5126,
      "count": 2184,
      "max": [
        100.5,
        6.600028991699219
      ],
      "min": [
        -99.5,
        -5.600028991699219
      ],
      "type": "VEC2"
    }
  ],
  "materials": [
    {
      "pbrMetallicRoughness": {
        "baseColorFactor": [
          0.5882353186607361,
          0.5882353186607361,
          0.5882353186607361,
          1
        ],
        "metallicFactor": 0.5,
        "roughnessFactor": 0.5
      },
      "name": "01 - Default"
    }
  ],
  "meshes": [
    {
      "primitives": [
        {
          "mode": 4,
          "attributes": {
            "POSITION": 0,
            "NORMAL": 1,
            "TEXCOORD_0": 2
          },
          "material": 0
        }
      ]
    }
  ],
  "extensionsUsed": [
    "KHR_lights_punctual"
  ]
}