{
  "asset": {
    "version": "2.0",
    "generator": "THREE.GLTFExporter"
  },
  "scenes": [
    {
      "name": "Scene",
      "nodes": [
        1,
        2,
        3,
        4,
        5
      ]
    }
  ],
  "scene": 0,
  "nodes": [
    {
      "name": "OracDecor_C371_uplighter",
      "mesh": 0
    },
    {
      "matrix": [
        0.001,
        0,
        0,
        0,
        0,
        0.001,
        0,
        0,
        0,
        0,
        0.001,
        0,
        0,
        0,
        0,
        1
      ],
      "name": "C371_Shade.obj",
      "children": [
        0
      ]
    },
    {
      "matrix": [
        1,
        0,
        0,
        0,
        0,
        1,
        0,
        0,
        0,
        0,
        1,
        0,
        -0.8808249015883476,
        0.023664626713839537,
        -0.009486846960514383,
        1
      ],
      "name": "PointLight",
      "extensions": {
        "KHR_lights_punctual": {
          "light": 0
        }
      }
    },
    {
      "matrix": [
        1,
        0,
        0,
        0,
        0,
        1,
        0,
        0,
        0,
        0,
        1,
        0,
        -0.26459660532949636,
        0.023664626713839537,
        -0.009486846960514383,
        1
      ],
      "name": "PointLight",
      "extensions": {
        "KHR_lights_punctual": {
          "light": 1
        }
      }
    },
    {
      "matrix": [
        1,
        0,
        0,
        0,
        0,
        1,
        0,
        0,
        0,
        0,
        1,
        0,
        0.23642261018923727,
        0.023664626713839537,
        -0.009486846960514383,
        1
      ],
      "name": "PointLight",
      "extensions": {
        "KHR_lights_punctual": {
          "light": 2
        }
      }
    },
    {
      "matrix": [
        1,
        0,
        0,
        0,
        0,
        1,
        0,
        0,
        0,
        0,
        1,
        0,
        0.7609071157237917,
        0.023664626713839537,
        -0.009486846960514383,
        1
      ],
      "name": "PointLight",
      "extensions": {
        "KHR_lights_punctual": {
          "light": 3
        }
      }
    }
  ],
  "bufferViews": [
    {
      "buffer": 0,
      "byteOffset": 0,
      "byteLength": 9936,
      "target": 34962,
      "byteStride": 12
    },
    {
      "buffer": 0,
      "byteOffset": 9936,
      "byteLength": 9936,
      "target": 34962,
      "byteStride": 12
    },
    {
      "buffer": 0,
      "byteOffset": 19872,
      "byteLength": 6624,
      "target": 34962,
      "byteStride": 8
    }
  ],
  "buffers": [
    {
      "byteLength": 26496,
      "uri": "data:application/octet-stream;base64,"
    }
  ],
  "accessors": [
    {
      "bufferView": 0,
      "componentType": 5126,
      "count": 828,
      "max": [
        1000.0006713867188,
        0,
        57.33610153198242
      ],
      "min": [
        -1000,
        -185.00010681152344,
        0
      ],
      "type": "VEC3"
    },
    {
      "bufferView": 1,
      "componentType": 5126,
      "count": 828,
      "max": [
        1,
        0.7096999883651733,
        0.9993000030517578
      ],
      "min": [
        -1,
        -0.9959999918937683,
        -1
      ],
      "type": "VEC3"
    },
    {
      "bufferView": 2,
      "componentType": 5126,
      "count": 828,
      "max": [
        100.5000991821289,
        3
      ],
      "min": [
        -99.5000991821289,
        -15.5
      ],
      "type": "VEC2"
    }
  ],
  "materials": [
    {
      "pbrMetallicRoughness": {
        "metallicFactor": 0.5,
        "roughnessFactor": 0.5
      }
    }
  ],
  "meshes": [
    {
      "primitives": [
        {
          "mode": 4,
          "attributes": {
            "POSITION": 0,
            "NORMAL": 1,
            "TEXCOORD_0": 2
          },
          "material": 0
        }
      ]
    }
  ],
  "extensions": {
    "KHR_lights_punctual": {
      "lights": [
        {
          "name": "PointLight",
          "color": [
            0.5294117647058824,
            0.9333333333333333,
            0.7568627450980392
          ],
          "intensity": 0.8,
          "type": "point",
          "range": 0.98
        },
        {
          "name": "PointLight",
          "color": [
            0.5294117647058824,
            0.9333333333333333,
            0.7568627450980392
          ],
          "intensity": 0.8,
          "type": "point",
          "range": 0.98
        },
        {
          "name": "PointLight",
          "color": [
            0.5294117647058824,
            0.9333333333333333,
            0.7568627450980392
          ],
          "intensity": 0.8,
          "type": "point",
          "range": 0.98
        },
        {
          "name": "PointLight",
          "color": [
            0.5294117647058824,
            0.9333333333333333,
            0.7568627450980392
          ],
          "intensity": 0.8,
          "type": "point",
          "range": 0.98
        }
      ]
    }
  },
  "extensionsUsed": [
    "KHR_lights_punctual"
  ]
}