{
  "asset": {
    "version": "2.0",
    "generator": "THREE.GLTFExporter"
  },
  "scenes": [
    {
      "name": "Scene",
      "nodes": [
        0,
        1,
        2,
        4
      ]
    }
  ],
  "scene": 0,
  "nodes": [
    {
      "name": "AmbientLight"
    },
    {
      "matrix": [
        1,
        0,
        0,
        0,
        0,
        1,
        0,
        0,
        0,
        0,
        1,
        0,
        5,
        10,
        7.5,
        1
      ],
      "name": "DirectionalLight",
      "extensions": {
        "KHR_lights_punctual": {
          "light": 0
        }
      }
    },
    {
      "matrix": [
        0.010012953404476936,
        0,
        0,
        0,
        0,
        0.010012953404476936,
        0,
        0,
        0,
        0,
        0.010012953404476936,
        0,
        0,
        0,
        0,
        1
      ]
    },
    {
      "matrix": [
        0.1,
        0,
        0,
        0,
        0,
        2.2204460492503132e-17,
        -0.1,
        0,
        0,
        0.1,
        2.2204460492503132e-17,
        0,
        0,
        0,
        0,
        1
      ],
      "name": "OracDecor_C393_cornice_moulding",
      "extras": {
        "transformData": {
          "inheritType": 1,
          "eulerOrder": "ZYX",
          "preRotation": [
            -90,
            0,
            0
          ],
          "scale": [
            0.1,
            0.1,
            0.1
          ],
          "parentMatrix": {
            "elements": [
              0.009477468066142527,
              0,
              0,
              0,
              0,
              0.009477468066142527,
              0,
              0,
              0,
              0,
              0.009477468066142527,
              0,
              0,
              0,
              0,
              1
            ]
          },
          "parentMatrixWorld": {
            "elements": [
              0.009477468066142527,
              0,
              0,
              0,
              0,
              0.009477468066142527,
              0,
              0,
              0,
              0,
              0.009477468066142527,
              0,
              0,
              0,
              0,
              1
            ]
          }
        }
      },
      "mesh": 0
    },
    {
      "matrix": [
        0.009477468066142527,
        0,
        0,
        0,
        0,
        0.009477468066142527,
        0,
        0,
        0,
        0,
        0.009477468066142527,
        0,
        0,
        0,
        0,
        1
      ],
      "children": [
        3
      ]
    }
  ],
  "extensions": {
    "KHR_lights_punctual": {
      "lights": [
        {
          "name": "DirectionalLight",
          "color": [
            1,
            1,
            1
          ],
          "intensity": 1,
          "type": "directional"
        }
      ]
    }
  },
  "bufferViews": [
    {
      "buffer": 0,
      "byteOffset": 0,
      "byteLength": 16704,
      "target": 34962,
      "byteStride": 12
    },
    {
      "buffer": 0,
      "byteOffset": 16704,
      "byteLength": 16704,
      "target": 34962,
      "byteStride": 12
    },
    {
      "buffer": 0,
      "byteOffset": 33408,
      "byteLength": 11136,
      "target": 34962,
      "byteStride": 8
    }
  ],
  "buffers": [
    {
      "byteLength": 44544,
      "uri": "data:application/octet-stream;base64,"
    }
  ],
  "accessors": [
    {
      "bufferView": 0,
      "componentType": 5126,
      "count": 1392,
      "max": [
        1000,
        0,
        0
      ],
      "min": [
        -1000.0001220703125,
        -211.7001190185547,
        -151.70001220703125
      ],
      "type": "VEC3"
    },
    {
      "bufferView": 1,
      "componentType": 5126,
      "count": 1392,
      "max": [
        1,
        1,
        1
      ],
      "min": [
        -1,
        -0.9951823353767395,
        -0.9951823353767395
      ],
      "type": "VEC3"
    },
    {
      "bufferView": 2,
      "componentType": 5126,
      "count": 1392,
      "max": [
        1,
        0.14288799464702606
      ],
      "min": [
        0,
        0
      ],
      "type": "VEC2"
    }
  ],
  "materials": [
    {
      "pbrMetallicRoughness": {
        "baseColorFactor": [
          0.5882353186607361,
          0.5882353186607361,
          0.5882353186607361,
          1
        ],
        "metallicFactor": 0.5,
        "roughnessFactor": 0.5
      },
      "name": "01 - Default"
    }
  ],
  "meshes": [
    {
      "primitives": [
        {
          "mode": 4,
          "attributes": {
            "POSITION": 0,
            "NORMAL": 1,
            "TEXCOORD_0": 2
          },
          "material": 0
        }
      ]
    }
  ],
  "extensionsUsed": [
    "KHR_lights_punctual"
  ]
}