{
  "asset": {
    "version": "2.0",
    "generator": "THREE.GLTFExporter"
  },
  "scenes": [
    {
      "name": "Scene",
      "nodes": [
        0,
        1,
        3
      ]
    }
  ],
  "scene": 0,
  "nodes": [
    {
      "name": "AmbientLight"
    },
    {
      "matrix": [
        1,
        0,
        0,
        0,
        0,
        1,
        0,
        0,
        0,
        0,
        1,
        0,
        5,
        10,
        7.5,
        1
      ],
      "name": "DirectionalLight",
      "extensions": {
        "KHR_lights_punctual": {
          "light": 0
        }
      }
    },
    {
      "name": "1",
      "extras": {
        "transformData": {
          "inheritType": 1,
          "eulerOrder": "ZYX",
          "translation": [
            -0.0017966270446777345,
            0,
            0.04431343078613281
          ],
          "preRotation": [
            -90,
            0,
            0
          ],
          "scale": [
            0.0105238,
            0.0105238,
            0.0105238
          ],
          "scalingOffset": [
            0,
            0,
            3.851859888774472e-34
          ],
          "parentMatrix": {
            "elements": [
              -0.0011083989064995764,
              0,
              -1.3573971730231326e-19,
              0,
              0,
              0.0011083989064995764,
              0,
              0,
              1.3573971730231326e-19,
              0,
              -0.0011083989064995764,
              0,
              0,
              0,
              0,
              1
            ]
          },
          "parentMatrixWorld": {
            "elements": [
              -0.0011083989064995764,
              0,
              -1.3573971730231326e-19,
              0,
              0,
              0.0011083989064995764,
              0,
              0,
              1.3573971730231326e-19,
              0,
              -0.0011083989064995764,
              0,
              0,
              0,
              0,
              1
            ]
          }
        }
      },
      "mesh": 0
    },
    {
      "matrix": [
        -0.0011083989064995764,
        0,
        -1.3573971730231326e-19,
        0,
        0,
        0.0011083989064995764,
        0,
        0,
        1.3573971730231326e-19,
        0,
        -0.0011083989064995764,
        0,
        0,
        0,
        0,
        1
      ],
      "children": [
        2
      ]
    }
  ],
  "extensions": {
    "KHR_lights_punctual": {
      "lights": [
        {
          "name": "DirectionalLight",
          "color": [
            1,
            1,
            1
          ],
          "intensity": 1,
          "type": "directional"
        }
      ]
    }
  },
  "bufferViews": [
    {
      "buffer": 0,
      "byteOffset": 0,
      "byteLength": 18360,
      "target": 34962,
      "byteStride": 12
    },
    {
      "buffer": 0,
      "byteOffset": 18360,
      "byteLength": 18360,
      "target": 34962,
      "byteStride": 12
    },
    {
      "buffer": 0,
      "byteOffset": 36720,
      "byteLength": 12240,
      "target": 34962,
      "byteStride": 8
    }
  ],
  "buffers": [
    {
      "byteLength": 48960,
      "uri": "data:application/octet-stream;base64,"
    }
  ],
  "accessors": [
    {
      "bufferView": 0,
      "componentType": 5126,
      "count": 1530,
      "max": [
        999.3173217773438,
        55.206634521484375,
        0
      ],
      "min": [
        -1000.6826782226562,
        -46.793365478515625,
        -13
      ],
      "type": "VEC3"
    },
    {
      "bufferView": 1,
      "componentType": 5126,
      "count": 1530,
      "max": [
        1,
        1,
        1
      ],
      "min": [
        -1,
        -1,
        -1
      ],
      "type": "VEC3"
    },
    {
      "bufferView": 2,
      "componentType": 5126,
      "count": 1530,
      "max": [
        1,
        0.20123900473117828
      ],
      "min": [
        0,
        0
      ],
      "type": "VEC2"
    }
  ],
  "materials": [
    {
      "pbrMetallicRoughness": {
        "baseColorFactor": [
          0.5,
          0.5,
          0.5,
          1
        ],
        "metallicFactor": 0.5,
        "roughnessFactor": 0.5
      },
      "name": "6f810e51ea2fc6ecf9335d24378ee1fa18750ea4_dx163_prod_mm_in_DEFAULT_MTL"
    }
  ],
  "meshes": [
    {
      "primitives": [
        {
          "mode": 4,
          "attributes": {
            "POSITION": 0,
            "NORMAL": 1,
            "TEXCOORD_0": 2
          },
          "material": 0
        }
      ]
    }
  ],
  "extensionsUsed": [
    "KHR_lights_punctual"
  ]
}