{
  "asset": {
    "version": "2.0",
    "generator": "THREE.GLTFExporter"
  },
  "scenes": [
    {
      "name": "Scene",
      "nodes": [
        1
      ]
    }
  ],
  "scene": 0,
  "nodes": [
    {
      "matrix": [
        0.1,
        0,
        0,
        0,
        0,
        2.2204460492503132e-17,
        -0.1,
        0,
        0,
        0.1,
        2.2204460492503132e-17,
        0,
        0,
        0,
        0,
        1
      ],
      "name": "OracDecor_DX170-2300_panel_molding",
      "extras": {
        "transformData": {
          "inheritType": 1,
          "eulerOrder": "ZYX",
          "preRotation": [
            -90,
            0,
            0
          ],
          "scale": [
            0.1,
            0.1,
            0.1
          ],
          "parentMatrix": {
            "elements": [
              0.01,
              0,
              0,
              0,
              0,
              0.01,
              0,
              0,
              0,
              0,
              0.01,
              0,
              0,
              0,
              0,
              1
            ]
          },
          "parentMatrixWorld": {
            "elements": [
              0.01,
              0,
              0,
              0,
              0,
              0.01,
              0,
              0,
              0,
              0,
              0.01,
              0,
              0,
              0,
              0,
              1
            ]
          }
        }
      },
      "mesh": 0
    },
    {
      "matrix": [
        0.01,
        0,
        0,
        0,
        0,
        0.01,
        0,
        0,
        0,
        0,
        0.01,
        0,
        0,
        0,
        0,
        1
      ],
      "children": [
        0
      ]
    }
  ],
  "bufferViews": [
    {
      "buffer": 0,
      "byteOffset": 0,
      "byteLength": 32976,
      "target": 34962,
      "byteStride": 12
    },
    {
      "buffer": 0,
      "byteOffset": 32976,
      "byteLength": 32976,
      "target": 34962,
      "byteStride": 12
    },
    {
      "buffer": 0,
      "byteOffset": 65952,
      "byteLength": 21984,
      "target": 34962,
      "byteStride": 8
    }
  ],
  "buffers": [
    {
      "byteLength": 87936,
      "uri": "data:application/octet-stream;base64,"
    }
  ],
  "accessors": [
    {
      "bufferView": 0,
      "componentType": 5126,
      "count": 2748,
      "max": [
        1000.0000610351562,
        0.000156402587890625,
        119
      ],
      "min": [
        -1000.0001831054688,
        -32.53070831298828,
        0
      ],
      "type": "VEC3"
    },
    {
      "bufferView": 1,
      "componentType": 5126,
      "count": 2748,
      "max": [
        1,
        1,
        1
      ],
      "min": [
        -1,
        -0.9999284148216248,
        -1
      ],
      "type": "VEC3"
    },
    {
      "bufferView": 2,
      "componentType": 5126,
      "count": 2748,
      "max": [
        100.50001525878906,
        6.450000286102295
      ],
      "min": [
        -99.50001525878906,
        -5.450000286102295
      ],
      "type": "VEC2"
    }
  ],
  "materials": [
    {
      "pbrMetallicRoughness": {
        "baseColorFactor": [
          0.5882353186607361,
          0.5882353186607361,
          0.5882353186607361,
          1
        ],
        "metallicFactor": 0.5,
        "roughnessFactor": 0.5
      },
      "name": "01 - Default"
    }
  ],
  "meshes": [
    {
      "primitives": [
        {
          "mode": 4,
          "attributes": {
            "POSITION": 0,
            "NORMAL": 1,
            "TEXCOORD_0": 2
          },
          "material": 0
        }
      ]
    }
  ]
}