{
  "asset": {
    "version": "2.0",
    "generator": "THREE.GLTFExporter"
  },
  "scenes": [
    {
      "name": "Scene",
      "nodes": [
        1,
        2,
        3
      ]
    }
  ],
  "scene": 0,
  "nodes": [
    {
      "matrix": [
        0.001820470262129499,
        1.2825561287660434e-18,
        7.283203237175037e-11,
        0,
        8.975611368196315e-35,
        0.0018204702621295002,
        -3.205808235602863e-11,
        0,
        -7.283203237175037e-11,
        3.205808235602861e-11,
        0.0018204702621294987,
        0,
        0,
        0.003616866127312268,
        0,
        1
      ],
      "name": "OracDecor_W100_decorative_element",
      "extras": {
        "transformData": {
          "inheritType": 1,
          "eulerOrder": "ZYX",
          "preRotation": [
            -90,
            0,
            0
          ],
          "rotation": [
            90.00000250447806,
            0,
            0
          ],
          "scale": [
            0.1,
            0.1,
            0.1
          ],
          "parentMatrix": {
            "elements": [
              1,
              0,
              0,
              0,
              0,
              1,
              0,
              0,
              0,
              0,
              1,
              0,
              0,
              0,
              0,
              1
            ]
          },
          "parentMatrixWorld": {
            "elements": [
              1,
              0,
              0,
              0,
              0,
              1,
              0,
              0,
              0,
              0,
              1,
              0,
              0,
              0,
              0,
              1
            ]
          }
        }
      },
      "mesh": 0
    },
    {
      "children": [
        0
      ]
    },
    {
      "name": "AmbientLight"
    },
    {
      "matrix": [
        1,
        0,
        0,
        0,
        0,
        1,
        0,
        0,
        0,
        0,
        1,
        0,
        5,
        25.750763651051244,
        23.822906668201753,
        1
      ],
      "name": "DirectionalLight",
      "extensions": {
        "KHR_lights_punctual": {
          "light": 0
        }
      }
    }
  ],
  "bufferViews": [
    {
      "buffer": 0,
      "byteOffset": 0,
      "byteLength": 27936,
      "target": 34962,
      "byteStride": 12
    },
    {
      "buffer": 0,
      "byteOffset": 27936,
      "byteLength": 27936,
      "target": 34962,
      "byteStride": 12
    },
    {
      "buffer": 0,
      "byteOffset": 55872,
      "byteLength": 18624,
      "target": 34962,
      "byteStride": 8
    }
  ],
  "buffers": [
    {
      "byteLength": 74496,
      "uri": "data:application/octet-stream;base64,"
    }
  ],
  "accessors": [
    {
      "bufferView": 0,
      "componentType": 5126,
      "count": 2328,
      "max": [
        129.15655517578125,
        75,
        29.829212188720703
      ],
      "min": [
        -129.15655517578125,
        -75.00000762939453,
        0.00002574920654296875
      ],
      "type": "VEC3"
    },
    {
      "bufferView": 1,
      "componentType": 5126,
      "count": 2328,
      "max": [
        0.9852514863014221,
        0.9905998110771179,
        0.9987579584121704
      ],
      "min": [
        -0.985791027545929,
        -0.9938355088233948,
        -1
      ],
      "type": "VEC3"
    },
    {
      "bufferView": 2,
      "componentType": 5126,
      "count": 2328,
      "max": [
        13.415656089782715,
        8
      ],
      "min": [
        -12.415656089782715,
        -7.000000476837158
      ],
      "type": "VEC2"
    }
  ],
  "materials": [
    {
      "pbrMetallicRoughness": {
        "baseColorFactor": [
          0.5882353186607361,
          0.5882353186607361,
          0.5882353186607361,
          1
        ],
        "metallicFactor": 0.5,
        "roughnessFactor": 0.5
      },
      "name": "01 - Default"
    }
  ],
  "meshes": [
    {
      "primitives": [
        {
          "mode": 4,
          "attributes": {
            "POSITION": 0,
            "NORMAL": 1,
            "TEXCOORD_0": 2
          },
          "material": 0
        }
      ]
    }
  ],
  "extensions": {
    "KHR_lights_punctual": {
      "lights": [
        {
          "name": "DirectionalLight",
          "color": [
            1,
            1,
            1
          ],
          "intensity": 1,
          "type": "directional"
        }
      ]
    }
  },
  "extensionsUsed": [
    "KHR_lights_punctual"
  ]
}