{
  "asset": {
    "version": "2.0",
    "generator": "THREE.GLTFExporter"
  },
  "scenes": [
    {
      "name": "Scene",
      "nodes": [
        1
      ]
    }
  ],
  "scene": 0,
  "nodes": [
    {
      "matrix": [
        0.085,
        0,
        0,
        0,
        0,
        1.8873791418627663e-17,
        -0.085,
        0,
        0,
        0.085,
        1.8873791418627663e-17,
        0,
        0,
        0,
        0,
        1
      ],
      "name": "OracDecor_W107_decorative_element",
      "extras": {
        "transformData": {
          "inheritType": 1,
          "eulerOrder": "ZYX",
          "preRotation": [
            -90,
            0,
            0
          ],
          "scale": [
            0.1,
            0.1,
            0.1
          ],
          "parentMatrix": {
            "elements": [
              0.012,
              0,
              0,
              0,
              0,
              0.012,
              0,
              0,
              0,
              0,
              0.012,
              0,
              0,
              0,
              0,
              1
            ]
          },
          "parentMatrixWorld": {
            "elements": [
              0.012,
              0,
              0,
              0,
              0,
              0.012,
              0,
              0,
              0,
              0,
              0.012,
              0,
              0,
              0,
              0,
              1
            ]
          }
        }
      },
      "mesh": 0
    },
    {
      "matrix": [
        0.012,
        0,
        0,
        0,
        0,
        0.012,
        0,
        0,
        0,
        0,
        0.012,
        0,
        0,
        0,
        0,
        1
      ],
      "children": [
        0
      ]
    }
  ],
  "bufferViews": [
    {
      "buffer": 0,
      "byteOffset": 0,
      "byteLength": 109584,
      "target": 34962,
      "byteStride": 12
    },
    {
      "buffer": 0,
      "byteOffset": 109584,
      "byteLength": 109584,
      "target": 34962,
      "byteStride": 12
    },
    {
      "buffer": 0,
      "byteOffset": 219168,
      "byteLength": 73056,
      "target": 34962,
      "byteStride": 8
    }
  ],
  "buffers": [
    {
      "byteLength": 292224,
      "uri": "data:application/octet-stream;base64,"
    }
  ],
  "accessors": [
    {
      "bufferView": 0,
      "componentType": 5126,
      "count": 9132,
      "max": [
        166.0349884033203,
        0.00002072817733278498,
        167
      ],
      "min": [
        -166.0349884033203,
        -28.956493377685547,
        -167
      ],
      "type": "VEC3"
    },
    {
      "bufferView": 1,
      "componentType": 5126,
      "count": 9132,
      "max": [
        0.9993460178375244,
        1,
        0.9983890056610107
      ],
      "min": [
        -0.9993460178375244,
        -0.9983707070350647,
        -0.9983890056610107
      ],
      "type": "VEC3"
    },
    {
      "bufferView": 2,
      "componentType": 5126,
      "count": 9132,
      "max": [
        17.08357048034668,
        17.17500114440918
      ],
      "min": [
        -16.08357048034668,
        -16.17500114440918
      ],
      "type": "VEC2"
    }
  ],
  "materials": [
    {
      "pbrMetallicRoughness": {
        "baseColorFactor": [
          0.5882353186607361,
          0.5882353186607361,
          0.5882353186607361,
          1
        ],
        "metallicFactor": 0.5,
        "roughnessFactor": 0.5
      },
      "name": "01 - Default"
    }
  ],
  "meshes": [
    {
      "primitives": [
        {
          "mode": 4,
          "attributes": {
            "POSITION": 0,
            "NORMAL": 1,
            "TEXCOORD_0": 2
          },
          "material": 0
        }
      ]
    }
  ]
}